<mxfile host="app.diagrams.net" modified="2024-06-18T13:44:27.554Z" agent="Mozilla/5.0 (X11; Linux x86_64) AppleWebKit/537.36 (KHTML, like Gecko) Chrome/123.0.0.0 Safari/537.36" etag="Q19nCBqmogK7aDg-NXKD" version="24.4.14" type="device">
  <diagram name="Page-1" id="5uYC0pkBTMQecHDB25J4">
    <mxGraphModel dx="585" dy="831" grid="1" gridSize="10" guides="1" tooltips="1" connect="1" arrows="1" fold="1" page="1" pageScale="1" pageWidth="850" pageHeight="1100" math="0" shadow="0">
      <root>
        <mxCell id="0" />
        <mxCell id="1" parent="0" />
        <mxCell id="mAKbVqCE2OK0pht33RqU-6" style="edgeStyle=orthogonalEdgeStyle;rounded=0;orthogonalLoop=1;jettySize=auto;html=1;startArrow=classic;startFill=1;" edge="1" parent="1" source="mAKbVqCE2OK0pht33RqU-1">
          <mxGeometry relative="1" as="geometry">
            <mxPoint x="424.9999999999999" y="420" as="targetPoint" />
          </mxGeometry>
        </mxCell>
        <mxCell id="mAKbVqCE2OK0pht33RqU-7" style="edgeStyle=orthogonalEdgeStyle;rounded=0;orthogonalLoop=1;jettySize=auto;html=1;startArrow=classic;startFill=1;" edge="1" parent="1" source="mAKbVqCE2OK0pht33RqU-1">
          <mxGeometry relative="1" as="geometry">
            <mxPoint x="680" y="420" as="targetPoint" />
          </mxGeometry>
        </mxCell>
        <mxCell id="mAKbVqCE2OK0pht33RqU-9" style="edgeStyle=orthogonalEdgeStyle;rounded=0;orthogonalLoop=1;jettySize=auto;html=1;startArrow=classic;startFill=1;" edge="1" parent="1" source="mAKbVqCE2OK0pht33RqU-1">
          <mxGeometry relative="1" as="geometry">
            <mxPoint x="170" y="420" as="targetPoint" />
          </mxGeometry>
        </mxCell>
        <mxCell id="mAKbVqCE2OK0pht33RqU-1" value="Backend" style="shape=image;verticalLabelPosition=bottom;labelBackgroundColor=default;verticalAlign=top;aspect=fixed;imageAspect=0;image=data:image/svg+xml,PHN2ZyB4bWxuczp4bGluaz0iaHR0cDovL3d3dy53My5vcmcvMTk5OS94bGluayIgeG1sbnM9Imh0dHA6Ly93d3cudzMub3JnLzIwMDAvc3ZnIiB4bWw6c3BhY2U9InByZXNlcnZlIiB2aWV3Qm94PSIwIDAgNDE5LjkzMSA0MTkuOTMxIiBoZWlnaHQ9IjgwMHB4IiB3aWR0aD0iODAwcHgiIGlkPSJDYXBhXzEiIHZlcnNpb249IjEuMSIgZmlsbD0iIzAwMDAwMCI+JiN4YTs8Zz4mI3hhOwk8Zz4mI3hhOwkJPGc+JiN4YTsJCQk8cGF0aCBkPSJNMjgyLjg5NSwzNTIuMzY3Yy0yLjE3Ni0xLjMyNC00LjA3Mi0zLjA5OS01LjU3OS01LjI1Yy0wLjY5Ni0wLjk5Mi0xLjI4NC0yLjA0MS0xLjc3MS0zLjEyNUgyOC4yODJWMTAwLjI3NmgzMzUuNjI0JiMxMDsmIzk7JiM5OyYjOTsmIzk7djE1OS4xMzhjNy4xNjUsMC42NDcsMTMuMTc3LDUuMzUzLDE1LjcwMSwxMS43OTdjMi4yMzUtMS4yMjUsNC43MjYtMS45ODIsNy4zNDQtMi4yMTNjMS43NzEtMC4xNTQsMy41My0wLjA0NCw1LjIzNiwwLjI5MyYjMTA7JiM5OyYjOTsmIzk7JiM5O1YzOS41NjFjMC0xMi45OTYtMTAuNTcxLTIzLjU2OS0yMy41NjYtMjMuNTY5SDIzLjU2OEMxMC41NzMsMTUuOTkyLDAsMjYuNTY1LDAsMzkuNTYxdjMwOS4xNDYmIzEwOyYjOTsmIzk7JiM5OyYjOTtjMCwxMi45OTYsMTAuNTczLDIzLjU2OCwyMy41NjgsMjMuNTY4aDI1Ny4xNzljLTIuMDA3LTQuMDY0LTIuNDgzLTguNjUyLTEuMzAyLTEzLjA2NiYjMTA7JiM5OyYjOTsmIzk7JiM5O0MyODAuMTI2LDM1Ni42NywyODEuMzA0LDM1NC4zNTQsMjgyLjg5NSwzNTIuMzY3eiBNMzM4LjAyNSw1NS41NjljMC00LjgwNiwzLjg5Ni04LjcwMyw4LjcwMi04LjcwM2g4LjcwMiYjMTA7JiM5OyYjOTsmIzk7JiM5O2M0LjgwNywwLDguNzAyLDMuODk2LDguNzAyLDguNzAzdjkuODYzYzAsNC44MDYtMy44OTYsOC43MDItOC43MDIsOC43MDJoLTguNzAyYy00LjgwNywwLTguNzAyLTMuODk2LTguNzAyLTguNzAyVjU1LjU2OXomIzEwOyYjOTsmIzk7JiM5OyYjOTsgTTI5Ny41Niw1NS41NjljMC00LjgwNiwzLjg5Ni04LjcwMyw4LjcwMi04LjcwM2g4LjcwM2M0LjgwNywwLDguNzAyLDMuODk2LDguNzAyLDguNzAzdjkuODYzYzAsNC44MDYtMy44OTYsOC43MDItOC43MDIsOC43MDImIzEwOyYjOTsmIzk7JiM5OyYjOTtoLTguNzAzYy00LjgwNiwwLTguNzAyLTMuODk2LTguNzAyLTguNzAyVjU1LjU2OXogTTI1Ny4wOTQsNTUuNTY5YzAtNC44MDYsMy44OTctOC43MDMsOC43MDItOC43MDNoOC43MDImIzEwOyYjOTsmIzk7JiM5OyYjOTtjNC44MDcsMCw4LjcwMywzLjg5Niw4LjcwMyw4LjcwM3Y5Ljg2M2MwLDQuODA2LTMuODk2LDguNzAyLTguNzAzLDguNzAyaC04LjcwMmMtNC44MDUsMC04LjcwMi0zLjg5Ni04LjcwMi04LjcwMlY1NS41Njl6Ii8+JiN4YTsJCQk8cGF0aCBkPSJNNDE5Ljg3NSwzMzUuNzdsLTIuNjE1LTE0LjgzYy0wLjM1My0xLjk5Ny0yLjI1Ni0zLjMzMS00LjI1NS0yLjk3OWwtMTMuMTg4LDIuMzI0Yy0xLjU4My0zLjcxNS0zLjYwNS03LjE5NS02LjAwNS0xMC4zOCYjMTA7JiM5OyYjOTsmIzk7JiM5O2w4LjYxNC0xMC4yNjhjMC42MjYtMC43NDQsMC45MzEtMS43MDksMC44NDctMi42OGMtMC4wODYtMC45NzEtMC41NTQtMS44NjctMS4zLTIuNDk0bC0xMS41MzQtOS42OCYjMTA7JiM5OyYjOTsmIzk7JiM5O2MtMC43NDYtMC42MjYtMS43MTMtMC45My0yLjY4My0wLjg0NWMtMC45NzEsMC4wODUtMS44NjcsMC41NTItMi40OTMsMS4yOThsLTguNjA2LDEwLjI2Yy0zLjUzMy0xLjgtNy4zMTItMy4xODgtMTEuMjcxLTQuMTA0JiMxMDsmIzk7JiM5OyYjOTsmIzk7di0xMy4zOTJjMC0yLjAyOC0xLjY0NS0zLjY3NC0zLjY3My0zLjY3NGgtMTUuMDZjLTIuMDI3LDAtMy42NzMsMS42NDYtMy42NzMsMy42NzR2MTMuMzkyJiMxMDsmIzk7JiM5OyYjOTsmIzk7Yy0zLjk2MSwwLjkxNS03LjczNiwyLjMwNC0xMS4yNzEsNC4xMDRsLTguNjA4LTEwLjI1OWMtMS4zMDQtMS41NTQtMy42Mi0xLjc1Ni01LjE3NS0wLjQ1M2wtMTEuNTM1LDkuNjc5JiMxMDsmIzk7JiM5OyYjOTsmIzk7Yy0wLjc0NiwwLjYyNy0xLjIxMywxLjUyMy0xLjI5OSwyLjQ5NGMtMC4wODQsMC45NzEsMC4yMiwxLjkzNywwLjg0NiwyLjY4M2w4LjYxNSwxMC4yNjZjLTIuMzk2LDMuMTg0LTQuNDIyLDYuNjY2LTYuMDA1LDEwLjM4JiMxMDsmIzk7JiM5OyYjOTsmIzk7bC0xMy4xODgtMi4zMjVjLTEuOTk0LTAuMzUxLTMuOTAxLDAuOTgyLTQuMjU1LDIuOTc5bC0yLjYxNCwxNC44M2MtMC4xNjksMC45NTksMC4wNSwxLjk0NSwwLjYwNywyLjc0NCYjMTA7JiM5OyYjOTsmIzk7JiM5O2MwLjU2MSwwLjc5OSwxLjQxLDEuMzQyLDIuMzcsMS41MTFsMTMuMTk4LDIuMzI2YzAuMjE1LDQuMDg5LDAuOTI3LDguMDQ1LDIuMDczLDExLjgxMmwtMTEuNiw2LjY5NSYjMTA7JiM5OyYjOTsmIzk7JiM5O2MtMC44NDQsMC40ODUtMS40NTksMS4yODktMS43MTIsMi4yMjljLTAuMjUyLDAuOTQxLTAuMTE5LDEuOTQzLDAuMzY3LDIuNzg3bDcuNTI5LDEzLjA0MWMwLjQ4NSwwLjg0NCwxLjI4OSwxLjQ1OSwyLjIyOSwxLjcxMSYjMTA7JiM5OyYjOTsmIzk7JiM5O2MwLjMxMywwLjA4NCwwLjYzMiwwLjEyNSwwLjk1MSwwLjEyNWMwLjYzOSwwLDEuMjcyLTAuMTY2LDEuODM2LTAuNDkybDExLjYwOS02LjcwM2MyLjczLDIuOTI1LDUuODEyLDUuNTE3LDkuMTgsNy43MDkmIzEwOyYjOTsmIzk7JiM5OyYjOTtsLTQuNTg0LDEyLjU5M2MtMC4zMzIsMC45MTYtMC4yODksMS45MjYsMC4xMjMsMi44MDlzMS4xNTcsMS41NjYsMi4wNzIsMS44OThsMTQuMTQ4LDUuMTQ5YzAuNDA2LDAuMTQ4LDAuODMyLDAuMjI0LDEuMjU3LDAuMjI0JiMxMDsmIzk7JiM5OyYjOTsmIzk7YzAuNTMsMCwxLjA2My0wLjExNSwxLjU1NC0wLjM0NWMwLjg4My0wLjQxMSwxLjU2NC0xLjE1NywxLjg5Ny0yLjA3M2w0LjU4My0xMi41OTNjMS45NjUsMC4yMzgsMy45NjUsMC4zNjEsNS45OTQsMC4zNjEmIzEwOyYjOTsmIzk7JiM5OyYjOTtzNC4wMjktMC4xMjUsNS45OTQtMC4zNjFsNC41ODQsMTIuNTkzYzAuMzMyLDAuOTE2LDEuMDE2LDEuNjYyLDEuODk3LDIuMDczYzAuNDksMC4yMjksMS4wMjEsMC4zNDUsMS41NTQsMC4zNDUmIzEwOyYjOTsmIzk7JiM5OyYjOTtjMC40MjQsMCwwLjg1LTAuMDc0LDEuMjU2LTAuMjI0bDE0LjE1LTUuMTQ5YzAuOTEzLTAuMzMyLDEuNjU5LTEuMDE3LDIuMDctMS44OThjMC40MTItMC44ODMsMC40NTYtMS44OTMsMC4xMjMtMi44MDkmIzEwOyYjOTsmIzk7JiM5OyYjOTtsLTQuNTg0LTEyLjU5MWMzLjM2NS0yLjE5Miw2LjQ0Ny00Ljc4Niw5LjE4LTcuNzA5bDExLjYwOSw2LjcwM2MwLjU2MywwLjMyNCwxLjE5NywwLjQ5MiwxLjgzNiwwLjQ5MiYjMTA7JiM5OyYjOTsmIzk7JiM5O2MwLjMxOCwwLDAuNjQtMC4wNDMsMC45NTEtMC4xMjVjMC45NDEtMC4yNTIsMS43NDMtMC44NjksMi4yMjktMS43MTFsNy41MjktMTMuMDQzYzAuNDg2LTAuODQyLDAuNjE5LTEuODQ2LDAuMzY3LTIuNzg3JiMxMDsmIzk7JiM5OyYjOTsmIzk7Yy0wLjI1My0wLjkzOC0wLjg2OC0xLjc0Mi0xLjcxMi0yLjIyOWwtMTEuNTk4LTYuNjkzYzEuMTQ2LTMuNzY4LDEuODU2LTcuNzI0LDIuMDcxLTExLjgxMmwxMy4xOTgtMi4zMjcmIzEwOyYjOTsmIzk7JiM5OyYjOTtjMC45Ni0wLjE2OSwxLjgxMi0wLjcxMiwyLjM3LTEuNTExQzQxOS44MjUsMzM3LjcxNSw0MjAuMDQ0LDMzNi43MjksNDE5Ljg3NSwzMzUuNzd6IE0zNTQuMTg0LDM1OS4zMzYmIzEwOyYjOTsmIzk7JiM5OyYjOTtjLTExLjE1NSwwLTIwLjItOS4wNDUtMjAuMi0yMC4yMDFzOS4wNDYtMjAuMiwyMC4yLTIwLjJjMTEuMTU2LDAsMjAuMjAxLDkuMDQ0LDIwLjIwMSwyMC4yUzM2NS4zNCwzNTkuMzM2LDM1NC4xODQsMzU5LjMzNnoiLz4mI3hhOwkJCTxnPiYjeGE7CQkJCTxwYXRoIGQ9Ik0xNjQuNjk1LDIzNS4zNzNjMC00Ljc1Mi0yLjc4NS05LjExNy03LjA5Ni0xMS4xMTlsLTM5LjQ1NS0xOC4zMzJsMzkuNDU2LTE4LjMzNGM0LjMxLTIuMDA0LDcuMDk1LTYuMzY4LDcuMDk1LTExLjExOCYjMTA7JiM5OyYjOTsmIzk7JiM5OyYjOTt2LTAuMzE5YzAtNC4yMS0yLjExOS04LjA3NS01LjY2NS0xMC4zMzRjLTEuOTYyLTEuMjUzLTQuMjQ3LTEuOTE2LTYuNjA2LTEuOTE2Yy0xLjc3OCwwLTMuNTYzLDAuMzkxLTUuMTYsMS4xMzNsLTYzLjA3OCwyOS4zMzMmIzEwOyYjOTsmIzk7JiM5OyYjOTsmIzk7Yy00LjMwOSwyLjAwNC03LjA5Miw2LjM2OC03LjA5MiwxMS4xMTd2MC44NzdjMCw0Ljc0MywyLjc4Miw5LjEwNCw3LjA5MywxMS4xMThsNjMuMDg0LDI5LjMzNiYjMTA7JiM5OyYjOTsmIzk7JiM5OyYjOTtjMS42MzEsMC43NTUsMy4zNjgsMS4xMzgsNS4xNjIsMS4xMzhjMi4zMzgsMCw0LjYxNi0wLjY2NCw2LjU5Ny0xLjkyNGMzLjU0OC0yLjI2OCw1LjY2Ni02LjEzLDUuNjY2LTEwLjMzNUwxNjQuNjk1LDIzNS4zNzMmIzEwOyYjOTsmIzk7JiM5OyYjOTsmIzk7TDE2NC42OTUsMjM1LjM3M3oiLz4mI3hhOwkJCQk8cGF0aCBkPSJNMjI2LjkzMiwxMzQuMDEyYy0yLjMwMS0zLjE1LTYuMDAyLTUuMDMtOS45MDEtNS4wM2gtMC4zMTRjLTUuMzU0LDAtMTAuMDQ4LDMuNDI1LTExLjY3OSw4LjUxNkwxNjMuNDc4LDI2Ni4yNyYjMTA7JiM5OyYjOTsmIzk7JiM5OyYjOTtjLTEuMTgzLDMuNzE4LTAuNTE3LDcuODEzLDEuNzgxLDEwLjk2MmMyLjMwMSwzLjE0OCw2LjAwMiw1LjAyOSw5LjkwMSw1LjAyOWgwLjMxNWM1LjM1MiwwLDEwLjA0My0zLjQyNiwxMS42NzItOC41MTYmIzEwOyYjOTsmIzk7JiM5OyYjOTsmIzk7bDQxLjU1NS0xMjguNzYyQzIyOS44OTYsMTQxLjI2OCwyMjkuMjM0LDEzNy4xNjcsMjI2LjkzMiwxMzQuMDEyeiIvPiYjeGE7CQkJCTxwYXRoIGQ9Ik0zMDguMDAxLDE5NC4zNjZsLTYzLjA3OS0yOS4zMzNjLTEuNTkyLTAuNzQtMy4zNzQtMS4xMzEtNS4xNTItMS4xMzFjLTIuMzU4LDAtNC42NDQsMC42NjEtNi42MDUsMS45MTImIzEwOyYjOTsmIzk7JiM5OyYjOTsmIzk7Yy0zLjU1MiwyLjI2My01LjY3MSw2LjEyNy01LjY3MSwxMC4zMzd2MC4zMTljMCw0Ljc0NiwyLjc4Myw5LjExMSw3LjA5NywxMS4xMjNsMzkuNDU0LDE4LjMzbC0zOS40NTUsMTguMzMxJiMxMDsmIzk7JiM5OyYjOTsmIzk7JiM5O2MtNC4zMTEsMi4wMDItNy4wOTYsNi4zNjctNy4wOTYsMTEuMTE5djAuMzIxYzAsNC4yMDUsMi4xMTksOC4wNjYsNS42NjksMTAuMzM2YzEuOTc0LDEuMjU4LDQuMjU0LDEuOTIzLDYuNTk1LDEuOTIzJiMxMDsmIzk7JiM5OyYjOTsmIzk7JiM5O2MxLjc5MiwwLDMuNTI3LTAuMzgzLDUuMTY5LTEuMTQxbDYzLjA4Mi0yOS4zMzZjNC4zMDctMi4wMDksNy4wODgtNi4zNzEsNy4wODgtMTEuMTE0di0wLjg3NyYjMTA7JiM5OyYjOTsmIzk7JiM5OyYjOTtDMzE1LjA5NCwyMDAuNzM1LDMxMi4zMTEsMTk2LjM3MSwzMDguMDAxLDE5NC4zNjZ6Ii8+JiN4YTsJCQk8L2c+JiN4YTsJCTwvZz4mI3hhOwk8L2c+JiN4YTs8L2c+JiN4YTs8L3N2Zz4=;fontSize=30;" vertex="1" parent="1">
          <mxGeometry x="375" y="500" width="100" height="100" as="geometry" />
        </mxCell>
        <mxCell id="mAKbVqCE2OK0pht33RqU-2" value="AI recommendations&#xa;" style="shape=image;verticalLabelPosition=bottom;labelBackgroundColor=default;verticalAlign=top;aspect=fixed;imageAspect=0;image=data:image/png,iVBORw0KGgoAAAANSUhEUgAAAOEAAADhCAMAAAAJbSJIAAAAgVBMVEX///8AAABBQUHw8PD4+PiLi4thYWGOjo5YWFhLS0uGhob5+fnz8/Ps7Ozg4OCSkpJUVFSoqKi4uLhpaWkyMjLj4+NISEgkJCTMzMyZmZnDw8PY2Ni9vb06Ojp5eXmurq4dHR1oaGgRERFxcXErKyshISE2NjZ9fX2hoaEWFhaYmJiRzbokAAAO7klEQVR4nN1da0MiMQwU8QHyBkEEeYon3v//gScCQidJm7Rd1nM+Kpvt7HbbJJ2mV1d5MOzfz2uz5bqy/th058+Tod3Cy/Z9cL2uVNbLWe19O2llalkOtBa1CkW9p2/jsHe3pha6BgsForV9ZOjt8WdbVVioJlsoEu07sXF7vLZDFl4DFu5CForElOudphYGn9AOtenFGLmorhSt22HeFCw050oLq1L6ak/Zuh36yRZ6F2b3+QLrhuZ9Dqz0NTZHqRYKxcTUuh3GYGGabKFQbM3Nw35m6aFHbC9H8D2ieZVK58zCfZSF90sRDM1g4QZqx1DE62UIDiKbV6k8HCzE9YEd5pcgGPsGd/j7ZeEhwcJDoHUZ8Oy5/duothqMnjy/2E2MvkHmaTRYreo+C4uiCY6lO8/7w5vDbxrDhdiTp/I08WnheJdGayF2lYJduCp/1+4L+eWky/7yo8mESZ+4mxALY8HrbRTKkPVDBny4215Jr4HglbcwZLvCXZEEuU/oUe42Uznw01qYMb+nHSYbmszt/IObZtjseC3cMlfk5OSC6TQhZ7EfJBiywLjAt7kIIZhRMJxwCnnY4Qi+TS8qKn9DR0fNnYZeghoLLXJVQd4bfRu6lKHvLeos0LdYTMxP5mA6hfGQv0VtyPeCFxbyJZKBVH8XKZS4V1sgvnoMgxBwLtwYruUJPhksLOHaIubEP5E9bAc+6WHxMNEfLsCxwQHNdgvO27NZwIH8JnyJEdhJbS4+F5LYctk4ImuHOT0gOT0yXk491LrRAnwl+UNhaB+f45VBs3PWsWLhXn5tvDwI9EysQRr1S6wtwNDUen0IMBrWzAZwKLYPhjBa5Y71/7rm7csIGAXZLUATcs+I4FTYHyA6XnYL0I2ezQb8gIUYe64EvWe7BRgKcg+mMNrbDTRcA+uINrgWBhEWfHD9QotHybcvZrB3LVjn0xDeHOt/Iixsktu3TG6DD24aehZh4Tr5Hbp5t5h+5MMm2Xo6Q/cpW6I3DSBvGWEhnaHbhJh+5ANk2CMs5GZod6s8qBJZV0Q6L5khusa1RaZ81M2CCV8jorNkhkyiYLRID4SrfF5en0P6RjJDLr//6dqkvciqlCWL+MyTGWJ0csQ8nmODf2pfsH+IqQw9ufOIHvUFryrIrm1JZehbXo/K2jT8qsEPs8FUht7mVFZme1N+MTrhqSUyDC3TLY0y1LAoy+w0JTJ8E9pxgkmloVm6tco+0hhqdHCGAUcj/a1UjHLIJIaCBgSgzm5plMmf6F6QoVKLqqSoe4OVo4brEgw9E7MLlTtu0A2aEt8JDBfC/Rko1r870rWDCf2XJWcZz5BOFJ2JKCsLdizBkRn1d9k/+nfDW4xmyLzBz782+tf07zsEJmp+zLoei/fS52VjGTKd6jBRjTnBVMhl5p7L+tQXGZN1rWcfx7DFtOgU2LCOjjfu4RTq55lXRryjdsKjGP7lbnjmn7Hes6df0SUw/NLYO+rcGzvDBu/IuAS4cVbup4wkFP1ZYepVyBbMDAWxLuaSGUGSOCvScfSDPA1OnlhR6QbMDG+Ut2JCY+mBU3k143qyn6JmlcTeS9k5jwmS6Mf1yBukAxOrOuNmTI22xs6Q66bsnWhH5V0RIpcQ2k2/bdVSWcRYSqNwwcMgujd22YY8MVG7SyiqArMIhmTvkOhCkYCWezs4s3gUM9hRVRrKCIY4hng+BuyATBxFRi5fs93hRjd7x8z47jX6FlW40R27nn+HkbM9UpfPiGF43qiRP6eAQR9tFO4JDeUozhxi3dpBDMOzjuVX9NOYgWQgcCYPKx3axybTybBXuztDtykybHbPf1ijGpvjlHgdzhWiyBZfEY63mqz9YQKl3z+MbFWRITx4qjo+DPCaMBTnfYwT4QkoUzq7TDuT/Ya0SgLDq4+KOniB/BJuOIWEqzo90Z8xk2FGhvczdRoBfDJIWeNckbY/LCNDA/wcwLNLVOOUwxAjO3dwgtkwURVXEkPI6Hhj98TN/SUx9IoXYT9MosihJIYwX7heGeQv0u6EMcHe5+EYwuAQu1p9hGvNzWW4H2mcoKp3e79HBzzAh68/uhmEp87uj+Aa1DsHC7dxpUxcaZ87XLo6B+tWgz1s1U78MK5rHeCmc13XN10aaVizUiBO0uU+YzdZ8/sZ5uil5TN0R5Nrz//iRpryGbo90X1POWaL8hn6bEDyNaomU+kMwX9wl4PBpYvy2kpnCPlQdzUYPO+oikylMwTlm5uLgugpag9q6QyhAe6+oxxb30pnCDYgBQhLBDEfYtkMIXh6g39DQjWmLEPZDGE+wJQ2Lq1FJGpsVQL9iPCqMOOLyTTMNkaMpo2bAzBf2vr+D6ABd324+v6P/fYoMSBzOgpJ7Lc4gY3xOWSM8WH3HxM9oNAkJRlVBkNca6QrM0QNlVBNswSGZC2fWS5CqUlC5YkSGGKCgVO2EwWCtajACeDlqhmGVtBkEG0RO6ETrbix6vh8VD/AjdP0DDdHAyNjBUiyAszLTYgA4cO2bYovsmdheIItE0XNCP2P/M621Vb0aSIYmnyaBul9kvyFSoZMG7jKYnizIZeLi4NUPvpomDNKYtiie01kkQCnWdNXdyiHIScN8wyRnOpf7aGWwpBrsXfS4e6m0EGUxXBKP8GK36UWdm4I5UXLZigdO+BZwmK1o3uOis/xwgzH8uYludMJOxi+sOmESF6S4fQWS9SdQxxLQ5sY17XOYtpuSdHpJRjetNrj3q3oPR0hzYeh6w6Qar9fgqGy1rng02j3T0mSt0v4pdpi57xf6uvZGoaXiC20DNnVM/WRFWHZYnHxobpgPRcfqpOBYYbFxfhqhsyHzO0I+o8ZMjfFXNu9ODT+SIY1zLVRd5rmS6UN4j+RYY/MdSRrzuW8q/xWVInhJXLePMPB7hli3Qx8rjgZ7m/R5rqqxPAS6xYcw8OhYCgvRb8GpHvfa0/MwWMSw0usPVGGd9/ucmDtCa47m05at7C2+IMYrm/PFPcwoS/dK/EzdP87fvj4gQyXDzCtgw03FwrZDprRb/Xnx9jK7HlnZHj0vK/nfbpfwruODzODkJsZjl96nVspNLkEw5fbTm8yFjaDwJTuet8wg/1CPQ1kBH6hJgoWp2Lsl8/Qq2tzfTZho/CPZ+gKrd117t+hoPVtAPwdDH0aYXcb7W9k6L7f/1Wr71NBu637X/db+Eaa9BKz5/iJe2ZAuPcL9z39ir1r4LV569j8n/sPLSrouKHsGyUxhAHOjZ5+/z5grL6TdhJPOQyhpABOeXH78QWUwxAiQEy2YE2FpPkiX00FA0I1FVAlHS8TvMpZF8MATDQSUR56ldnPpE2vq+8FviLqu+MqRaoHRVAwQ3yFVAVNagzlPuuzWIakaBvTB1Gekvscl2IZolCGqyBHJHBRG9i0bcjMkJQAZcU/pDJ/3nO/imRI3g5vngqGsn6KBTKklRMFn4zUTVxb9LOhoj02hi8WDS0hKKVDqd5kqaZ4FyxqZmK4MDiOjMZCjG+ZbJlOW9r4ygH5yzBbGH4NHMp8GFO/VH44nOJEE2UMD3Iqad3tCwaGh5zKRiNr5eSGHqeaqyMc3txxShD4epae4WlmDlbza3BiCq97yylMP/yvsX2epfS4CWqG5z/s+l8jqxf1uyq8WLAuZ6aG8BAfxX02SoZVGNHf5S4n1PMOjI5STXZ+LhivyC/X0iSqY8gUBR7wz7fP8wv7KWJd/fnYfTiNsSBQEoZfFUP+pPknVGBXJ+Sg9yMUMaZ4baXy9vq3P55Op+PJ87tHE84/cw1DocD1DrP37WR370m/8/oh/0yVJkhdQ1rzX46GYTV0fk8Iyl32aRQlP0jVS5taoTIP9bZF5TEsLN6kwVQ30jQ9PTAIr8fhQimJZyC7Wtr5MLjVQITpVBjOudHA8x2oZ3zDMTAOjIc888N2CD4vS++1hXa2sHg0B7OBc9fYm3gDEYPnzR3bEYDhEzxBvT3hgMCSnCk+NH4lT7EJF70y/qBEzsbwqupxPAgScmYt7X1q4YdozdNMtYPqQ0J9i08MNSPbqyYTYM9ETcVDnc7QST9rtdkjx0I4eNvq1qlicm3Vrd/HqcdXtnDR6kk9ZtZRH6wYmU1sd6QTVmu9TOcB78H4qqvnsaWHxOdLq5MOM3VlPdP5imypabfNn3fyWbKwSzn3udyueDFGgJqe83bHg9xnqz8lty+doduPYk6w98F9hzHPz21fTB/7k9wGH9weojocCOAW6Ih5A24CwFZaJox0qXsls4XcK7jJRdsxE2t3tUCLEFP40IfkLSeYRrNbgJA1t5RCt23IAyz6Z7cAEZX1xOUQ4BXYHQoMau3yR/AcEzWwBCjIsQqK6IKINSZAOUx6TAGABROrU0+3TVstgMg393RIMmDWsZouo1i3PEA3j0rMeIEJMNtx9NyChC23gsk/Y+5QAfwQbQpUbreJbbTC8C37Z0gbaXkFfNrOMhpiJ0hUorPAHfuWCIolWFkaLGA2I1f64hxEvKh3KqRsll4TTPKa2eWvbDu1cnc5S6/tp+Sc0XBtjhjQWme6Aqe+JRCdhdg7m0GzUZrVELkInNYCFTJxNXRzgGlr+FmGFrHCFKNuGwkmxx/6ksLLOyELjLOQ3585gjuU27/iJBRidOBfuuXUL4UMpHtwZYdmsv82ZktTEvyRLUy5FYUi5sJvsNn9Af8tSaUpGcwtFtJ2LIUgHB6/oh/TC7/xeSnoSRgLE2GxpMA+uoOoWjorp9IY9sV1x7Y8e7gWxFW9vPp6Blhw6hybem21GtHKxSfsPiGfEGEz6wYsJO2N0iFea3McNkVxoAKJ20x1WEU37+ira+YQHsZq9LGIFYWd3GWLBOIcubPAIuI66vmWxriOWpwvQxAjCnOHCKlkoQ+ZN2L54ZG6CsD5zi4rS9t9bUbTVsmkSxdibmwWRlllCSpoyw7vwE9ilp560R56hFAak+JVevzVldLC6vIvcI+2RpjV9blZKmnXqHBHzYN26C0EBWHTkIVBmfx2aPaEnR2f2Gw1K73VrRxGPqksFI5Wr8bsIuj29NmU9pbrrd1tYfmYCAz796+zXei3fru+e99O7Btsh5Pt+91sfbDw/GJb+pHxD+bsyydndaWvAAAAAElFTkSuQmCC;fontSize=30;" vertex="1" parent="1">
          <mxGeometry x="120" y="270" width="100" height="100" as="geometry" />
        </mxCell>
        <mxCell id="mAKbVqCE2OK0pht33RqU-3" value="Notifications&#xa;" style="shape=image;verticalLabelPosition=bottom;labelBackgroundColor=default;verticalAlign=top;aspect=fixed;imageAspect=0;image=data:image/svg+xml,PHN2ZyB4bWxuczp4bGluaz0iaHR0cDovL3d3dy53My5vcmcvMTk5OS94bGluayIgeG1sbnM9Imh0dHA6Ly93d3cudzMub3JnLzIwMDAvc3ZnIiB4bWw6c3BhY2U9InByZXNlcnZlIiB2aWV3Qm94PSIwIDAgNjQgNjQiIGlkPSJMYXllcl8xIiB2ZXJzaW9uPSIxLjEiIHdpZHRoPSI4MDBweCIgaGVpZ2h0PSI4MDBweCIgZmlsbD0iIzAwMDAwMCI+JiN4YTs8ZyBpZD0iQmVsbCI+JiN4YTsJPHBhdGggZD0iTTQ2LjY2NzQ5OTUsOC42NTg2NTA0Yy0wLjU1Mjc5OTIsMC0xLDAuNDQ3My0xLDFjMCwwLjU1Mjc5OTIsMC40NDcyMDA4LDEsMSwxJiMxMDsmIzk7JiM5O2MzLjUxODUwMTMsMCw2LjM4MDgwMjIsMi44NjIyOTk5LDYuMzgwODAyMiw2LjM4MDkwMDRjMCwwLjU1MjcsMC40NDczLDEsMSwxYzAuNTUyNzk5MiwwLDEtMC40NDczLDEtMSYjMTA7JiM5OyYjOTtDNTUuMDQ4MzAxNywxMi40MTg0NTA0LDUxLjI4ODYwMDksOC42NTg2NTA0LDQ2LjY2NzQ5OTUsOC42NTg2NTA0eiIvPiYjeGE7CTxwYXRoIGQ9Ik04Ljk1MTcwMDIsMTcuMDM5NTUwOGMwLDAuNTUyNywwLjQ0NzE5OTgsMSwxLDFjMC41NTI3LDAsMS0wLjQ0NzMsMS0xJiMxMDsmIzk7JiM5O2MwLTMuNTE4NjAwNSwyLjg2MjI5OTktNi4zODA5MDA0LDYuMzgwODAwMi02LjM4MDkwMDRjMC41NTI3OTkyLDAsMS0wLjQ0NzIwMDgsMS0xYzAtMC41NTI3LTAuNDQ3MjAwOC0xLTEtMSYjMTA7JiM5OyYjOTtDMTIuNzExNCw4LjY1ODY1MDQsOC45NTE3MDAyLDEyLjQxODQ1MDQsOC45NTE3MDAyLDE3LjAzOTU1MDh6Ii8+JiN4YTsJPHBhdGggZD0iTTQ4LjE0MzEwMDcsMS4yNzc4NWMtMC41NTI3OTkyLDAtMSwwLjQ0NzMtMSwwLjk5OTk5OTlzMC40NDcyMDA4LDEsMSwxJiMxMDsmIzk7JiM5O2M2Ljc3NDM5ODgsMCwxMi4yODYwOTg1LDUuNTEwNzAwMiwxMi4yODYwOTg1LDEyLjI4NTFjMCwwLjU1Mjc5OTIsMC40NDczLDEsMSwxczEtMC40NDcyMDA4LDEtMSYjMTA7JiM5OyYjOTtDNjIuNDI5MTk5Miw3LjY4NjA0OTksNTYuMDIwMDAwNSwxLjI3Nzg1LDQ4LjE0MzEwMDcsMS4yNzc4NXoiLz4mI3hhOwk8cGF0aCBkPSJNMTYuODU2MDAwOSwyLjI3Nzg0OTljMC0wLjU1MjY5OTktMC40NDczLTAuOTk5OTk5OS0xLjAwMDAwMS0wLjk5OTk5OTkmIzEwOyYjOTsmIzk7Yy03Ljg3Njk5OTksMC0xNC4yODUyMDAxLDYuNDA4MTk5OC0xNC4yODUyMDAxLDE0LjI4NTFjMCwwLjU1Mjc5OTIsMC40NDczMDAxLDEsMS4wMDAwMDAxLDFzMS0wLjQ0NzIwMDgsMS0xJiMxMDsmIzk7JiM5O2MwLTYuNzc0Mzk5OCw1LjUxMDcwMDItMTIuMjg1MSwxMi4yODUyMDAxLTEyLjI4NTFDMTYuNDA4NzAwOSwzLjI3Nzg0OTksMTYuODU2MDAwOSwyLjgzMDU1LDE2Ljg1NjAwMDksMi4yNzc4NDk5eiIvPiYjeGE7CTxwYXRoIGQ9Ik01MS43OTMyMDE0LDQ2LjIwMjA0OTNjLTAuMTI4MDAyMi0wLjM4MjgwMTEtMC4zNjkyMDE3LTAuNjk2NTk4MS0wLjY2MjEwMTctMC45NDYzOTk3JiMxMDsmIzk7JiM5O2MwLjAyMzYwMTUtMC42MDkyOTg3LDAuMDM4NjAwOS0xLjIyMjI5NzcsMC4wMzg2MDA5LTEuODQwOTk5NmMwLTEzLjYxOTg5OTctNS42NDEyMDEtMjUuMTU0NjAwMS0xMy40MzQ1MDE2LTI5LjExMDQwMTImIzEwOyYjOTsmIzk7YzAuMTE2MTAwMy0wLjQ3MDYwMDEsMC4xODQ0MDI1LTAuOTYwMTAwMiwwLjE4NDQwMjUtMS40NjY2OTk2YzAtMy4zNzc0MDA0LTIuNzM4MDAyOC02LjExNTQwMDMtNi4xMTU0MDIyLTYuMTE1NDAwMyYjMTA7JiM5OyYjOTtzLTYuMTE1Mzk4NCwyLjczNzk5OTktNi4xMTUzOTg0LDYuMTE1NDAwM2MwLDAuNTA2NTk5NCwwLjA2ODI5ODMsMC45OTYwOTk1LDAuMTg0Mzk4NywxLjQ2NjY5OTYmIzEwOyYjOTsmIzk7QzE4LjA3OTkwMDcsMTguMjYwMDQ5OCwxMi40Mzg2OTk3LDI5Ljc5NDc1MDIsMTIuNDM4Njk5Nyw0My40MTQ2NWMwLDAuNjE4NzAxOSwwLjAxNTAwMDMsMS4yMzE3MDA5LDAuMDM4NiwxLjg0MDk5OTYmIzEwOyYjOTsmIzk7Yy0wLjI5MjkwMDEsMC4yNDk4MDE2LTAuNTM0MDk5NiwwLjU2MzU5ODYtMC42NjIwOTk4LDAuOTQ2Mzk5N2wtMi44OTc1LDguNjY2NTk5MyYjMTA7JiM5OyYjOTtjLTAuNDY5MjAwMSwxLjQwMzMwMTIsMC41NzU0MDA0LDIuODUzNTAwNCwyLjA1NTUsMi44NTM1MDA0aDE0LjEyNDcwMDVjMC44NjEwMDAxLDIuODkwODAwNSwzLjUzNTc5OSw1LDYuNzA2Mjk4OCw1JiMxMDsmIzk7JiM5O3M1Ljg0NTMwMjYtMi4xMDkxOTk1LDYuNzA2MzAyNi01aDE0LjEyNDY5ODZjMS40ODAwOTg3LDAsMi41MjQ3MDAyLTEuNDUwMTk5MSwyLjA1NTUtMi44NTM1MDA0TDUxLjc5MzIwMTQsNDYuMjAyMDQ5M3omIzEwOyYjOTsmIzk7IE0yNi43OTU5MDAzLDE2LjEyMTk1MDFsMS40NDQzOTg5LTAuNzMzMjAwMWwtMC4zODc4OTk0LTEuNTcyNzAwNWMtMC4wODQxOTk5LTAuMzQxMy0wLjEyNTIwMDMtMC42NjEzOTk4LTAuMTI1MjAwMy0wLjk3ODQ5OTQmIzEwOyYjOTsmIzk7YzAtMi4yNDgwMDAxLDEuODI5MDAwNS00LjA3NjkwMDUsNC4wNzY5OTk3LTQuMDc2OTAwNXM0LjA3Njk5OTcsMS44Mjg5MDAzLDQuMDc2OTk5Nyw0LjA3NjkwMDUmIzEwOyYjOTsmIzk7YzAsMC4zMTcwOTk2LTAuMDQxMDAwNCwwLjYzNzE5OTQtMC4xMjUxOTg0LDAuOTc4NDk5NGwtMC4zODc5MDEzLDEuNTcyNzAwNUwzNi44MTI1LDE2LjEyMTk1MDEmIzEwOyYjOTsmIzk7YzcuMjUzMTAxMywzLjY4MTYwMDYsMTIuMzE4Njk4OSwxNC45MDQ2OTkzLDEyLjMxODY5ODksMjcuMjkyNjk5OGMwLDAuNDE4MzAwNi0wLjAwNjA5OTcsMC44NDE5OTkxLTAuMDE4MTAwNywxLjI2OTEwMDImIzEwOyYjOTsmIzk7SDE0LjQ5NTMwMDNjLTAuMDEyMDAwMS0wLjQyNzEwMTEtMC4wMTgxMDA3LTAuODUwNzk5Ni0wLjAxODEwMDctMS4yNjkxMDAyJiMxMDsmIzk7JiM5O0MxNC40NzcxOTk2LDMxLjAyNjY0OTUsMTkuNTQyODAwOSwxOS44MDM1NTA3LDI2Ljc5NTkwMDMsMTYuMTIxOTUwMXogTTMxLjgwNDE5OTIsNjAuNzIyMTQ4OSYjMTA7JiM5OyYjOTtjLTIuMDQ2NDAwMSwwLTMuODA5NDk5Ny0xLjIzNTUwMDMtNC41ODI0OTg2LTNoOS4xNjQ5OTlDMzUuNjEzNzAwOSw1OS40ODY2NDg2LDMzLjg1MDYwMTIsNjAuNzIyMTQ4OSwzMS44MDQxOTkyLDYwLjcyMjE0ODl6JiMxMDsmIzk7JiM5OyBNNTIuNzcxMTk4Myw1NS42NTI2NDg5Yy0wLjA1MDA5ODQsMC4wNjk1LTAuMTEwMjk4MiwwLjA2OTUtMC4xMzU5OTc4LDAuMDY5NUgzOC44MDQxOTkyaC0xNEgxMC45NzMxOTk4JiMxMDsmIzk7JiM5O2MtMC4wMjU2OTk2LDAtMC4wODU5MDAzLDAtMC4xMzU5OTk3LTAuMDY5NWMtMC4wNDk2OTk4LTAuMDY5MDk5NC0wLjAzMDc5OTktMC4xMjU2OTgxLTAuMDIyNzAwMy0wLjE0OTc5OTNsMi44OTc1LTguNjY2NTk5MyYjMTA7JiM5OyYjOTtjMC4wMjI5MDA2LTAuMDY4MTk5MiwwLjA4NjYwMDMtMC4xMTQxMDE0LDAuMTU4ODAwMS0wLjExNDEwMTRoMzUuODY2Nzk4NGMwLjA3MjIwMDgsMCwwLjEzNTkwMjQsMC4wNDU5MDIzLDAuMTU4ODAyLDAuMTE0MDAyMiYjMTA7JiM5OyYjOTtsMi44OTc0OTkxLDguNjY2Njk4NUM1Mi44MDE5OTgxLDU1LjUyNjk1MDgsNTIuODIwOSw1NS41ODM1NDk1LDUyLjc3MTE5ODMsNTUuNjUyNjQ4OXoiLz4mI3hhOzwvZz4mI3hhOzwvc3ZnPg==;fontSize=30;" vertex="1" parent="1">
          <mxGeometry x="630" y="270" width="100" height="100" as="geometry" />
        </mxCell>
        <mxCell id="mAKbVqCE2OK0pht33RqU-4" value="Analytics" style="shape=image;verticalLabelPosition=bottom;labelBackgroundColor=default;verticalAlign=top;aspect=fixed;imageAspect=0;image=data:image/svg+xml,PHN2ZyB4bWxuczp4bGluaz0iaHR0cDovL3d3dy53My5vcmcvMTk5OS94bGluayIgeG1sbnM9Imh0dHA6Ly93d3cudzMub3JnLzIwMDAvc3ZnIiB4bWw6c3BhY2U9InByZXNlcnZlIiB2aWV3Qm94PSIwIDAgNDA3LjM5MiA0MDcuMzkyIiBpZD0iQ2FwYV8xIiB2ZXJzaW9uPSIxLjEiIHdpZHRoPSI4MDBweCIgaGVpZ2h0PSI4MDBweCIgZmlsbD0iIzAwMDAwMCI+JiN4YTs8Zz4mI3hhOwk8cGF0aCBkPSJNNDAyLjAxNiwzMjIuMzgybC04OC44OTYtODguOTAyYzEyLjQyNC0xNy42NTcsMTkuMTQzLTM4LjY0OSwxOS4xNDMtNjAuNjljMC0yOC4yNTQtMTAuOTk4LTU0LjgxNi0zMC45NzgtNzQuNzk1JiMxMDsmIzk7JiM5O2MtMTkuOTc5LTE5Ljk3OS00Ni41NDUtMzAuOTgyLTc0Ljc5NS0zMC45ODJjLTIuMDc0LDAtNC4xMzcsMC4wNjYtNi4xOSwwLjE4NHYzMC42NThjMi4wNS0wLjE2Niw0LjExMS0wLjI3LDYuMTktMC4yNyYjMTA7JiM5OyYjOTtjMjAuMDksMCwzOC45NzEsNy44MjMsNTMuMTc2LDIyLjAyOGMxNC4yMDcsMTQuMjA2LDIyLjAyOSwzMy4wOTEsMjIuMDI5LDUzLjE3N2MwLDIwLjA5LTcuODIyLDM4Ljk3Ni0yMi4wMjksNTMuMTc3JiMxMDsmIzk7JiM5O2MtMTQuMjA1LDE0LjIwNi0zMy4wODYsMjIuMDI5LTUzLjE3NiwyMi4wMjljLTIwLjA5MiwwLTM4Ljk3My03LjgyMy01My4xNzgtMjIuMDI5Yy00LjY4Ni00LjY4NC04LjY2LTkuODg1LTExLjkwNS0xNS40NjMmIzEwOyYjOTsmIzk7Yy0zLjk4OSwyLjMwNS04LjYxLDMuNjM1LTEzLjU0LDMuNjM1Yy05LjQzNiwwLTE3Ljc2Mi00LjgzNi0yMi42MzItMTIuMTZjLTAuMTA0LDAuMTU3LTAuMjIsMC4zMDctMC4zMjcsMC40NjImIzEwOyYjOTsmIzk7YzQuOTA0LDE2Ljg4OCwxNC4wMDYsMzIuMzY1LDI2Ljc4Nyw0NS4xNDVjMTkuOTc5LDE5Ljk4LDQ2LjU0MywzMC45ODIsNzQuNzk1LDMwLjk4MmMyMi4wMzUsMCw0My4wMzMtNi43MjMsNjAuNjg0LTE5LjE0NyYjMTA7JiM5OyYjOTtsODguOTA2LDg4LjkwM2MzLjU4LDMuNTgzLDguMjczLDUuMzczLDEyLjk3Myw1LjM3M2M0LjY5MywwLDkuMzg1LTEuNzksMTIuOTY1LTUuMzczJiMxMDsmIzk7JiM5O0M0MDkuMTg0LDM0MS4xNTksNDA5LjE4NCwzMjkuNTQ0LDQwMi4wMTYsMzIyLjM4MnoiLz4mI3hhOwk8cGF0aCBkPSJNMTAyLjYwMiwxMzUuMTcyYy02LjY2MiwwLTEyLjA3LDUuNDA0LTEyLjA3LDEyLjA3MXYzOS43MzZjMCw2LjY2Niw1LjQwOCwxMi4wNzEsMTIuMDcsMTIuMDcxJiMxMDsmIzk7JiM5O2M2LjY3LDAsMTIuMDctNS40MDUsMTIuMDctMTIuMDcxdi0zOS43MzZDMTE0LjY3MiwxNDAuNTc3LDEwOS4yNzEsMTM1LjE3MiwxMDIuNjAyLDEzNS4xNzJ6Ii8+JiN4YTsJPHBhdGggZD0iTTEyLjA3LDEzNS4xNzJjLTYuNjYsMC0xMi4wNyw1LjQwNC0xMi4wNywxMi4wNzF2MzkuNzM2YzAsNi42NjYsNS40MSwxMi4wNzEsMTIuMDcsMTIuMDcxJiMxMDsmIzk7JiM5O2M2LjY3LDAsMTIuMDctNS40MDUsMTIuMDctMTIuMDcxdi0zOS43MzZDMjQuMTQxLDE0MC41NzcsMTguNzQsMTM1LjE3MiwxMi4wNywxMzUuMTcyeiIvPiYjeGE7CTxwYXRoIGQ9Ik01Ny4zMzYsODUuMzgxYy02LjY2MiwwLTEyLjA3Miw1LjQwNS0xMi4wNzIsMTIuMDcxdjg5LjUyN2MwLDYuNjY2LDUuNDEsMTIuMDcxLDEyLjA3MiwxMi4wNzEmIzEwOyYjOTsmIzk7YzYuNjcsMCwxMi4wNy01LjQwNSwxMi4wNy0xMi4wNzFWOTcuNDUyQzY5LjQwNiw5MC43ODYsNjQuMDA2LDg1LjM4MSw1Ny4zMzYsODUuMzgxeiIvPiYjeGE7CTxwYXRoIGQ9Ik0xOTMuMTM5LDE5OS4wNWM2LjY2MiwwLDEyLjA3LTUuNDA1LDEyLjA3LTEyLjA3MVY2NS43NjZjMC02LjY2Ni01LjQwOC0xMi4wNy0xMi4wNy0xMi4wNyYjMTA7JiM5OyYjOTtjLTYuNjcsMC0xMi4wNzgsNS40MDQtMTIuMDc4LDEyLjA3djEyMS4yMTNDMTgxLjA2MSwxOTMuNjQ1LDE4Ni40NjksMTk5LjA1LDE5My4xMzksMTk5LjA1eiIvPiYjeGE7CTxwYXRoIGQ9Ik0xNDcuODY1LDE5OS4wNWM2LjY3LDAsMTIuMDcyLTUuNDA1LDEyLjA3Mi0xMi4wNzFWOTcuNDUyYzAtNi42NjYtNS40MDItMTIuMDcxLTEyLjA3Mi0xMi4wNzEmIzEwOyYjOTsmIzk7Yy02LjY2LDAtMTIuMDcsNS40MDUtMTIuMDcsMTIuMDcxdjg5LjUyN0MxMzUuNzk1LDE5My42NDUsMTQxLjIwNSwxOTkuMDUsMTQ3Ljg2NSwxOTkuMDV6Ii8+JiN4YTs8L2c+JiN4YTs8L3N2Zz4=;fontSize=30;" vertex="1" parent="1">
          <mxGeometry x="375" y="270" width="100" height="100" as="geometry" />
        </mxCell>
        <mxCell id="mAKbVqCE2OK0pht33RqU-11" style="edgeStyle=orthogonalEdgeStyle;rounded=0;orthogonalLoop=1;jettySize=auto;html=1;startArrow=classic;startFill=1;" edge="1" parent="1" source="mAKbVqCE2OK0pht33RqU-10">
          <mxGeometry relative="1" as="geometry">
            <mxPoint x="424.9999999999999" y="650" as="targetPoint" />
          </mxGeometry>
        </mxCell>
        <mxCell id="mAKbVqCE2OK0pht33RqU-10" value="Webinterface" style="shape=image;verticalLabelPosition=bottom;labelBackgroundColor=default;verticalAlign=top;aspect=fixed;imageAspect=0;image=data:image/svg+xml,PHN2ZyB4bWxuczp4bGluaz0iaHR0cDovL3d3dy53My5vcmcvMTk5OS94bGluayIgeG1sbnM9Imh0dHA6Ly93d3cudzMub3JnLzIwMDAvc3ZnIiB4bWw6c3BhY2U9InByZXNlcnZlIiB2aWV3Qm94PSIwIDAgNTEyIDUxMiIgaWQ9IkxheWVyXzEiIHZlcnNpb249IjEuMSIgd2lkdGg9IjgwMHB4IiBoZWlnaHQ9IjgwMHB4IiBmaWxsPSIjMDAwMDAwIj4mI3hhOzxnPiYjeGE7CTxnPiYjeGE7CQk8cGF0aCBkPSJNMjU2LDBDMTE0LjYyLDAsMCwxMTQuNjIsMCwyNTZzMTE0LjYyLDI1NiwyNTYsMjU2czI1Ni0xMTQuNjIsMjU2LTI1NlMzOTcuMzgsMCwyNTYsMHogTTE3Mi4yMTEsNDEuNjA5JiMxMDsmIzk7JiM5OyYjOTtjLTI0LjkzNCwyNy4xMTktNDQuNjgsNjYuMTI1LTU2Ljc1NSwxMTEuOTkySDQ5Ljc0OUM3NS4xNzksMTAyLjc0MSwxMTguODY5LDYyLjUyNCwxNzIuMjExLDQxLjYwOXogTTI1LjYsMjU2JiMxMDsmIzk7JiM5OyYjOTtjMC0yNi45OTksNS4wNzctNTIuNzI3LDEzLjY2Mi03Ni44aDcwLjQ5NGMtNC42MDgsMjQuMjk0LTcuMzU2LDQ5Ljk2My03LjM1Niw3Ni44czIuNzQ4LDUyLjUwNiw3LjM0Nyw3Ni44SDM5LjI2MiYjMTA7JiM5OyYjOTsmIzk7QzMwLjY3NywzMDguNzI3LDI1LjYsMjgzLDI1LjYsMjU2eiBNNDkuNzQ5LDM1OC40aDY1LjcwN2MxMi4wODMsNDUuODY3LDMxLjgyMSw4NC44NzIsNTYuNzU1LDExMS45OTEmIzEwOyYjOTsmIzk7JiM5O0MxMTguODY5LDQ0OS40NzYsNzUuMTc5LDQwOS4yNTksNDkuNzQ5LDM1OC40eiBNMjQzLjIsNDg1LjE4OGMtNDMuODEtOC4yNTItODEuODc3LTU4LjI0LTEwMS4zNTktMTI2Ljc4OEgyNDMuMlY0ODUuMTg4eiYjMTA7JiM5OyYjOTsmIzk7IE0yNDMuMiwzMzIuOEgxMzUuNzRjLTQuOTI0LTI0LjE2Ni03Ljc0LTQ5Ljk5Ny03Ljc0LTc2LjhzMi44MTYtNTIuNjM0LDcuNzQtNzYuOEgyNDMuMlYzMzIuOHogTTI0My4yLDE1My42SDE0MS44NDEmIzEwOyYjOTsmIzk7JiM5O0MxNjEuMzIzLDg1LjA1MiwxOTkuMzksMzUuMDYzLDI0My4yLDI2LjgxMlYxNTMuNnogTTQ2Mi4yNTEsMTUzLjZoLTY1LjcwN2MtMTIuMDgzLTQ1Ljg2Ny0zMS44MjEtODQuODczLTU2Ljc1NS0xMTEuOTkyJiMxMDsmIzk7JiM5OyYjOTtDMzkzLjEzMSw2Mi41MjQsNDM2LjgyMSwxMDIuNzQxLDQ2Mi4yNTEsMTUzLjZ6IE0yNjguOCwyNi44MTJjNDMuODEsOC4yNTIsODEuODc3LDU4LjI0LDEwMS4zNTksMTI2Ljc4OEgyNjguOFYyNi44MTJ6JiMxMDsmIzk7JiM5OyYjOTsgTTI2OC44LDE3OS4yaDEwNy40NmM0LjkyNCwyNC4xNjYsNy43NCw0OS45OTcsNy43NCw3Ni44cy0yLjgxNiw1Mi42MzQtNy43NCw3Ni44SDI2OC44VjE3OS4yeiBNMjY4LjgsNDg1LjE4OFYzNTguNGgxMDEuMzU5JiMxMDsmIzk7JiM5OyYjOTtDMzUwLjY3Nyw0MjYuOTQ4LDMxMi42MSw0NzYuOTM3LDI2OC44LDQ4NS4xODh6IE0zMzkuNzg5LDQ3MC4zOTFjMjQuOTM0LTI3LjEyNyw0NC42NzItNjYuMTI1LDU2Ljc1NS0xMTEuOTkxaDY1LjcwNyYjMTA7JiM5OyYjOTsmIzk7QzQzNi44MjEsNDA5LjI1OSwzOTMuMTMxLDQ0OS40NzYsMzM5Ljc4OSw0NzAuMzkxeiBNNDAyLjI0NCwzMzIuOGM0LjYwOC0yNC4yOTQsNy4zNTYtNDkuOTYzLDcuMzU2LTc2LjgmIzEwOyYjOTsmIzk7JiM5O3MtMi43NDgtNTIuNTA2LTcuMzQ3LTc2LjhoNzAuNDk0YzguNTc2LDI0LjA3MywxMy42NTMsNDkuODAxLDEzLjY1Myw3Ni44YzAsMjctNS4wNzcsNTIuNzI3LTEzLjY2Miw3Ni44SDQwMi4yNDR6Ii8+JiN4YTsJPC9nPiYjeGE7PC9nPiYjeGE7PC9zdmc+;fontSize=30;" vertex="1" parent="1">
          <mxGeometry x="375" y="740" width="100" height="100" as="geometry" />
        </mxCell>
      </root>
    </mxGraphModel>
  </diagram>
</mxfile>
